<svg width="131" height="77" viewBox="0 0 131 77" fill="none" xmlns="http://www.w3.org/2000/svg">
<path d="M49.1162 76.6808H93.655M73.0361 56.7204L79.2721 54.6515C81.114 53.9896 81.1428 52.9247 79.9628 51.1691L74.0628 42.3336C72.5756 40.4917 70.7167 40.4916 69.3428 42.3336L51.4186 69.3019C50.3479 70.8836 51.0002 72.372 53.2477 72.372H90.4444C92.6919 72.372 93.432 71.229 91.6476 68.6675L85.0359 59.0019C84.1359 57.9325 83.3013 57.9325 82.2543 58.9531L81.1922 60.0168L72.5683 69.2741C72.1208 69.7652 71.7323 69.8041 71.2067 69.2741L62.1171 60.1725C61.7827 59.8135 61.7498 59.5337 62.0394 59.1306L70.7167 46.3501C70.7531 46.3053 70.7462 46.3916 70.7462 46.4408L70.7802 65.565M73.0361 56.7204V65.565M73.0361 56.7204V46.9681M73.0361 65.565L80.6774 57.4111M73.0361 65.565C72.0592 66.5678 71.7571 66.5678 70.7802 65.565M70.7802 65.565L65.6531 60.5803C64.4443 59.3486 64.4155 59.0427 65.6531 58.5822L68.537 57.472" stroke="#B5D9F0" stroke-width="0.551726" stroke-linecap="round"/>
<path d="M2.48683 8.68629C2.48683 6.928 2.91124 5.39709 3.76007 4.09353C4.63921 2.78998 5.86698 1.78958 7.44337 1.09233C9.01976 0.36476 10.869 0.000976562 12.9911 0.000976562C14.8403 0.000976562 16.4621 0.334444 17.8566 1.00138C19.2815 1.638 20.4183 2.57777 21.2671 3.8207C22.1159 5.06362 22.6464 6.54907 22.8587 8.27703H20.585C20.3728 6.27623 19.5998 4.73015 18.2659 3.6388C16.9623 2.54746 15.2041 2.00178 12.9911 2.00178C10.5052 2.00178 8.48924 2.60809 6.94317 3.8207C5.42741 5.0333 4.66952 6.65517 4.66952 8.68629C4.66952 10.2324 5.12425 11.5208 6.03371 12.5515C6.97348 13.5519 8.36798 14.2946 10.2172 14.7796L15.9468 16.2348C18.372 16.8411 20.2212 17.8566 21.4945 19.2815C22.7677 20.7063 23.4043 22.4494 23.4043 24.5108C23.4043 26.2994 22.9648 27.8607 22.0856 29.1945C21.2065 30.5284 19.9635 31.5591 18.3568 32.2867C16.7805 33.0142 14.9161 33.378 12.7637 33.378C10.7629 33.378 8.98944 33.0446 7.44337 32.3776C5.89729 31.7107 4.66952 30.7709 3.76007 29.5583C2.85061 28.3154 2.30494 26.8603 2.12305 25.1929H4.44216C4.53311 27.0422 5.33646 28.5276 6.85222 29.6493C8.3983 30.7709 10.3688 31.3318 12.7637 31.3318C15.3405 31.3318 17.3868 30.7254 18.9025 29.5128C20.4486 28.2699 21.2216 26.6177 21.2216 24.5563C21.2216 22.9496 20.7517 21.6309 19.812 20.6002C18.8722 19.5391 17.4474 18.7661 15.5375 18.2811L9.94437 16.8714C7.51915 16.2651 5.66993 15.2798 4.39669 13.9157C3.12345 12.5212 2.48683 10.778 2.48683 8.68629Z" fill="#B5D9F0"/>
<path d="M63.8101 16.6895C63.8101 19.9635 63.1583 22.8587 61.8548 25.3748C60.5512 27.8607 58.7475 29.816 56.4435 31.2408C54.1699 32.6656 51.5325 33.378 48.5312 33.378C45.5604 33.378 42.9229 32.6656 40.619 31.2408C38.315 29.816 36.5113 27.8607 35.2077 25.3748C33.9345 22.8587 33.2979 19.9635 33.2979 16.6895C33.2979 13.4155 33.9496 10.5355 35.2532 8.04967C36.5567 5.53351 38.3453 3.56302 40.619 2.1382C42.9229 0.713385 45.5604 0.000976562 48.5312 0.000976562C51.5325 0.000976562 54.1699 0.713385 56.4435 2.1382C58.7475 3.56302 60.5512 5.53351 61.8548 8.04967C63.1583 10.5355 63.8101 13.4155 63.8101 16.6895ZM61.5819 16.6895C61.5819 13.8096 61.0211 11.2782 59.8995 9.09554C58.8081 6.91285 57.2772 5.20004 55.3067 3.95711C53.3665 2.71419 51.108 2.09273 48.5312 2.09273C45.9848 2.09273 43.7263 2.71419 41.7558 3.95711C39.8156 5.20004 38.2847 6.91285 37.163 9.09554C36.0717 11.2782 35.526 13.8096 35.526 16.6895C35.526 19.5391 36.0717 22.0705 37.163 24.2835C38.2847 26.4662 39.8156 28.179 41.7558 29.4219C43.7263 30.6648 45.9848 31.2863 48.5312 31.2863C51.108 31.2863 53.3665 30.6648 55.3067 29.4219C57.2772 28.179 58.8081 26.4662 59.8995 24.2835C61.0211 22.0705 61.5819 19.5391 61.5819 16.6895Z" fill="#B5D9F0"/>
<path d="M76.502 0.546875V32.8326H74.3193V0.546875H76.502ZM92.8722 2.54768H74.3193V0.546875H92.8722V2.54768ZM90.2348 18.1903H74.3193V16.1895H90.2348V18.1903Z" fill="#B5D9F0"/>
<path d="M115.487 1.45633V32.8326H113.305V1.45633H115.487ZM103.164 2.54768V0.546875H125.628V2.54768H103.164Z" fill="#B5D9F0"/>
<path d="M12.2505 76.6812L2.70117 44.3955H4.97481L12.1595 68.8599C12.3717 69.5875 12.5688 70.3453 12.7507 71.1335C12.9326 71.9217 13.1296 72.7857 13.3418 73.7255C13.6146 72.6644 13.8572 71.7701 14.0694 71.0426C14.3119 70.315 14.5393 69.5875 14.7515 68.8599L22.6183 44.3955H24.801L32.7132 68.8599C32.9558 69.6178 33.1831 70.3908 33.3953 71.179C33.6378 71.9672 33.8652 72.8009 34.0774 73.68C34.3199 72.5583 34.5321 71.6034 34.714 70.8152C34.9262 70.027 35.1081 69.3752 35.2597 68.8599L42.5354 44.3955H44.7635L35.1233 76.6812H33.1225L23.7096 47.5786L14.3422 76.6812H12.2505Z" fill="#B5D9F0"/>
<path d="M110.875 62.8575L99.916 44.3955H102.417L111.057 59.3106C111.208 59.5834 111.36 59.8563 111.512 60.1291C111.663 60.4019 111.815 60.7051 111.966 61.0386C112.118 60.7657 112.209 60.5838 112.239 60.4929C112.3 60.3716 112.36 60.2352 112.421 60.0836C112.512 59.9321 112.664 59.6744 112.876 59.3106L121.425 44.3955H123.835L113.058 62.8575V76.6812H110.875V62.8575Z" fill="#B5D9F0"/>
</svg>
