<svg version="1.1" id="Layer_1" xmlns="http://www.w3.org/2000/svg" xmlns:xlink="http://www.w3.org/1999/xlink" x="0px" y="0px"
	 width="100%" viewBox="0 0 90 94" enable-background="new 0 0 90 94" xml:space="preserve">
<path fill="#010102" opacity="1.000000" stroke="none" 
	d="
M50.000000,95.000000 
	C33.333336,95.000000 17.166672,95.000000 1.000006,95.000000 
	C1.000004,63.666676 1.000004,32.333351 1.000002,1.000019 
	C30.999987,1.000013 60.999973,1.000013 90.999969,1.000006 
	C90.999985,32.333313 90.999985,63.666626 90.999992,94.999969 
	C77.500000,95.000000 64.000000,95.000000 50.000000,95.000000 
M37.939335,24.846420 
	C29.318613,25.630148 22.603149,30.821037 20.209124,38.551441 
	C17.954752,45.830891 20.316166,54.381195 25.867340,59.038937 
	C33.195827,65.187950 41.866741,65.512848 51.947136,59.995800 
	C57.274082,64.755020 62.616611,69.528160 67.959137,74.301300 
	C68.406578,73.892502 68.854027,73.483711 69.301468,73.074913 
	C64.419823,67.825157 59.538185,62.575397 54.659233,57.332516 
	C63.715435,40.699234 56.236828,25.374510 37.939335,24.846420 
z"/>
<path fill="#CBE4EA" opacity="1.000000" stroke="none" 
	d="
M38.334858,24.769234 
	C56.236828,25.374510 63.715435,40.699234 54.657890,57.329079 
	C59.538185,62.575397 64.419823,67.825157 69.301468,73.074913 
	C68.854027,73.483711 68.406578,73.892502 67.959137,74.301300 
	C62.616611,69.528160 57.274082,64.755020 51.947136,59.995800 
	C41.866741,65.512848 33.195827,65.187950 25.867340,59.038937 
	C20.316166,54.381195 17.954752,45.830891 20.209124,38.551441 
	C22.603149,30.821037 29.318613,25.630148 38.334858,24.769234 
M26.737526,33.329899 
	C22.382145,38.894596 21.086855,44.939640 24.225983,51.482346 
	C27.039022,57.345413 31.829517,60.605415 38.323467,61.013157 
	C45.768677,61.480618 52.810097,56.451981 55.043594,49.331093 
	C57.186375,42.499428 54.555325,34.842445 48.695606,30.856939 
	C41.802063,26.168278 34.143284,26.862522 26.737526,33.329899 
z"/>
<path fill="#030506" opacity="1.000000" stroke="none" 
	d="
M26.999226,33.064911 
	C34.143284,26.862522 41.802063,26.168278 48.695606,30.856939 
	C54.555325,34.842445 57.186375,42.499428 55.043594,49.331093 
	C52.810097,56.451981 45.768677,61.480618 38.323467,61.013157 
	C31.829517,60.605415 27.039022,57.345413 24.225983,51.482346 
	C21.086855,44.939640 22.382145,38.894596 26.999226,33.064911 
z"/>
</svg>